<svg width="28" height="40" viewBox="0 0 28 40" fill="none" xmlns="http://www.w3.org/2000/svg">
<path d="M20.2733 6.42858H27.3002V23.1038V34.8572C27.3002 36.514 25.957 37.8572 24.3002 37.8572H14.0002H3.7002C2.04334 37.8572 0.700195 36.514 0.700195 34.8572V23.1113V6.42858H7.72706C8.02252 3.22379 10.7183 0.714294 14.0002 0.714294C17.2821 0.714294 19.9779 3.22379 20.2733 6.42858Z" fill="white"/>
<path d="M27.3002 6.42858H27.8002V5.92858H27.3002V6.42858ZM0.700195 6.42858V5.92858H0.200195V6.42858H0.700195ZM7.2002 12.1429C7.2002 12.419 7.42405 12.6429 7.7002 12.6429C7.97634 12.6429 8.2002 12.419 8.2002 12.1429H7.2002ZM19.8002 12.1429C19.8002 12.419 20.0241 12.6429 20.3002 12.6429C20.5763 12.6429 20.8002 12.419 20.8002 12.1429H19.8002ZM27.3002 5.92858H20.2733V6.92858H27.3002V5.92858ZM20.2733 5.92858H7.72706V6.92858H20.2733V5.92858ZM7.72706 5.92858H0.700195V6.92858H7.72706V5.92858ZM8.2002 12.1429V7.0143H7.2002V12.1429H8.2002ZM19.8002 7.0143V12.1429H20.8002V7.0143H19.8002ZM3.7002 38.3572H14.0002V37.3572H3.7002V38.3572ZM14.0002 38.3572H24.3002V37.3572H14.0002V38.3572ZM27.8002 34.8572V23.1038H26.8002V34.8572H27.8002ZM27.8002 23.1038V6.42858H26.8002V23.1038H27.8002ZM0.200195 6.42858V23.1113H1.2002V6.42858H0.200195ZM0.200195 23.1113V34.8572H1.2002V23.1113H0.200195ZM8.2002 7.0143C8.2002 6.83215 8.20858 6.6521 8.22495 6.47448L7.22917 6.38268C7.20999 6.59077 7.2002 6.80146 7.2002 7.0143H8.2002ZM8.22495 6.47448C8.49691 3.52457 10.979 1.21429 14.0002 1.21429V0.214294C10.4575 0.214294 7.54813 2.92301 7.22917 6.38268L8.22495 6.47448ZM24.3002 38.3572C26.2332 38.3572 27.8002 36.7902 27.8002 34.8572H26.8002C26.8002 36.2379 25.6809 37.3572 24.3002 37.3572V38.3572ZM20.8002 7.0143C20.8002 6.80146 20.7904 6.59077 20.7712 6.38268L19.7754 6.47448C19.7918 6.6521 19.8002 6.83215 19.8002 7.0143H20.8002ZM20.7712 6.38268C20.4523 2.92301 17.5428 0.214294 14.0002 0.214294V1.21429C17.0213 1.21429 19.5035 3.52457 19.7754 6.47448L20.7712 6.38268ZM3.7002 37.3572C2.31948 37.3572 1.2002 36.2379 1.2002 34.8572H0.200195C0.200195 36.7902 1.7672 38.3572 3.7002 38.3572V37.3572Z" fill="#2B2B2B"/>
</svg>
