<svg width="32" height="32" viewBox="0 0 32 32" fill="none" xmlns="http://www.w3.org/2000/svg">
<g clip-path="url(#clip0_1099_1955)">
<path d="M30.7427 9.77272C29.9369 7.86734 28.7835 6.15622 27.3144 4.68697C25.8453 3.21769 24.1343 2.06403 22.229 1.25803C20.2561 0.423375 18.1606 0.000125 16 0C13.8405 0 11.7452 0.423125 9.77222 1.25759C7.86694 2.06344 6.15594 3.21694 4.68675 4.68603C3.21756 6.15513 2.06397 7.86606 1.258 9.77128C0.423375 11.7442 0.000125028 13.8395 2.76937e-08 15.9991C-0.000124972 18.1587 0.422906 20.2542 1.25731 22.2273C2.06309 24.1327 3.21656 25.8438 4.68566 27.313C6.15475 28.7823 7.86572 29.936 9.77103 30.742C11.744 31.5766 13.8395 31.9999 15.9999 32H16.0002C18.1597 32 20.2549 31.5769 22.2279 30.7424C24.1332 29.9366 25.8442 28.7831 27.3133 27.314C28.7825 25.845 29.9361 24.134 30.7421 22.2288C31.5767 20.2558 31.9999 18.1605 32 16.001C32.0001 13.8413 31.5771 11.7458 30.7427 9.77272ZM16.0001 30.5103H15.9992C12.1234 30.51 8.47959 29.0005 5.73909 26.2597C2.99866 23.5189 1.48953 19.875 1.48975 15.9992C1.49022 7.99866 7.9995 1.48978 16.0009 1.48978C19.8767 1.49 23.5204 2.99953 26.2609 5.74031C29.0013 8.48113 30.5104 12.125 30.5102 16.0008C30.5098 24.0013 24.0006 30.5103 16.0001 30.5103Z" fill="#2B2B2B"/>
<path d="M21.5234 10.0498L21.0249 10.0513L18.4192 10.0591C18.2871 10.0617 18.2169 10.0993 18.1736 10.1343C18.1227 10.1753 18.0765 10.24 18.039 10.3306C18.0015 10.421 17.9808 10.5178 17.9702 10.5968C17.9651 10.635 17.9628 10.6659 17.9617 10.6856C17.9612 10.6954 17.961 10.7022 17.9609 10.7055C17.9609 10.706 17.9609 10.7065 17.9609 10.7068L17.9609 10.7075H17.9609V12.8648L21.0192 12.8711L21.5835 12.8722L21.5144 13.4323L21.0899 16.8737L21.0351 17.3185L20.5869 17.3124L17.9453 17.2768V25.6294V26.1294H17.4453H13.9766H13.4766V25.6294V17.3481H10.9766H10.4766V16.8481V13.3481V12.8481H10.9766H13.5078V12.8442V12.8394V12.8346V12.8298V12.825V12.8201V12.8153V12.8104V12.8055V12.8006V12.7957V12.7907V12.7858V12.7808V12.7758V12.7708V12.7658V12.7607V12.7557V12.7506V12.7455V12.7404V12.7353V12.7302V12.725V12.7199V12.7147V12.7095V12.7043V12.6991V12.6938V12.6886V12.6833V12.678V12.6727V12.6674V12.6621V12.6568V12.6514V12.6461V12.6407V12.6353V12.6299V12.6244V12.619V12.6136V12.6081V12.6026V12.5971V12.5916V12.5861V12.5806V12.575V12.5695V12.5639V12.5583V12.5527V12.5471V12.5415V12.5358V12.5302V12.5245V12.5188V12.5132V12.5075V12.5018V12.496V12.4903V12.4846V12.4788V12.473V12.4672V12.4615V12.4557V12.4498V12.444V12.4382V12.4323V12.4265V12.4206V12.4147V12.4088V12.4029V12.397V12.3911V12.3851V12.3792V12.3732V12.3673V12.3613V12.3553V12.3493V12.3433V12.3373V12.3312V12.3252V12.3192V12.3131V12.307V12.301V12.2949V12.2888V12.2827V12.2766V12.2704V12.2643V12.2582V12.252V12.2459V12.2397V12.2335V12.2273V12.2211V12.2149V12.2087V12.2025V12.1963V12.1901V12.1838V12.1776V12.1713V12.1651V12.1588V12.1525V12.1462V12.1399V12.1336V12.1273V12.121V12.1147V12.1083V12.102V12.0957V12.0893V12.083V12.0766V12.0702V12.0638V12.0575V12.0511V12.0447V12.0383V12.0319V12.0255V12.019V12.0126V12.0062V11.9997V11.9933V11.9868V11.9804V11.9739V11.9675V11.961V11.9545V11.948V11.9416V11.9351V11.9286V11.9221V11.9156V11.9091V11.9026V11.896V11.8895V11.883V11.8765V11.8699V11.8634V11.8568V11.8503V11.8438V11.8372V11.8306V11.8241V11.8175V11.811V11.8044V11.7978V11.7912V11.7847V11.7781V11.7715V11.7649V11.7583V11.7517V11.7451V11.7385V11.7319V11.7253V11.7187V11.7121V11.7055V11.6989V11.6923V11.6856V11.679V11.6724V11.6658V11.6592V11.6525V11.6459V11.6393V11.6327V11.626V11.6194V11.6128V11.6061V11.5995V11.5929V11.5862V11.5796V11.573V11.5663V11.5597V11.5531V11.5464V11.5398V11.5331V11.5265V11.5199V11.5132V11.5066V11.5V11.4933V11.4867V11.4801V11.4734V11.4668V11.4602V11.4535V11.4469V11.4403V11.4336V11.427V11.4204V11.4138V11.4071V11.4005V11.3939V11.3873V11.3807V11.374V11.3674V11.3608V11.3542V11.3476V11.341V11.3344V11.3278V11.3212V11.3146V11.308V11.3014V11.2948V11.2883V11.2817V11.2751V11.2685V11.262V11.2554V11.2488V11.2423V11.2357V11.2291V11.2226V11.216V11.2095V11.203V11.1964V11.1899V11.1834V11.1769V11.1703V11.1638V11.1573V11.1508V11.1443V11.1378V11.1313V11.1248V11.1184V11.1119V11.1054V11.0989V11.0925V11.086V11.0796V11.0731V11.0667V11.0603V11.0538V11.0474V11.041V11.0346V11.0282V11.0218V11.0154V11.009V11.0026V10.9963V10.9899V10.9835V10.9772V10.9708V10.9645V10.9582V10.9518V10.9455V10.9392V10.9329V10.9266V10.9203V10.914V10.9078V10.9015V10.8952V10.889V10.8828V10.8765V10.8703V10.8699V10.8695V10.869V10.8686V10.8682V10.8678V10.8674V10.867V10.8666V10.8661V10.8657V10.8653V10.8649V10.8645V10.8641V10.8637V10.8632V10.8628V10.8624V10.862V10.8616V10.8612V10.8608V10.8603V10.8599V10.8595V10.8591V10.8587V10.8583V10.8579V10.8574V10.857V10.8566V10.8562V10.8558V10.8554V10.855V10.8546V10.8541V10.8537V10.8533V10.8529V10.8525V10.8521V10.8517V10.8512V10.8508V10.8504V10.85V10.8496V10.8492V10.8488V10.8484V10.8479V10.8475V10.8471V10.8467V10.8463V10.8459V10.8455V10.8451V10.8446V10.8442V10.8438V10.8434V10.843V10.8426V10.8422V10.8418V10.8413V10.8409V10.8405V10.8401V10.8397V10.8393V10.8389V10.8385V10.838V10.8376V10.8372V10.8368V10.8364V10.836V10.8356V10.8352V10.8347V10.8343V10.8339V10.8335V10.8331V10.8327V10.8323V10.8319V10.8315V10.831V10.8306V10.8302V10.8298V10.8294V10.829V10.8286V10.8282V10.8278V10.8273V10.8269V10.8265V10.8261V10.8257V10.8253V10.8249V10.8245V10.8241V10.8236V10.8232V10.8228V10.8224V10.822V10.8216V10.8212V10.8208V10.8204V10.82V10.8195V10.8191V10.8187V10.8183V10.8179V10.8175V10.8171V10.8167V10.8163V10.8159V10.8154V10.815V10.8146V10.8142V10.8138V10.8134V10.813V10.8126V10.8122V10.8118V10.8113V10.8109V10.8105V10.8101V10.8097V10.8093V10.8089V10.8085V10.8081V10.8077V10.8073V10.8068V10.8064V10.806V10.8056V10.8052V10.8048V10.8044V10.804V10.8036V10.8032V10.8028V10.8023V10.8019V10.8015V10.8011V10.8007V10.8003V10.7999V10.7995V10.7991V10.7987V10.7983V10.7979V10.7974V10.797V10.7966V10.7962V10.7958V10.7954V10.795V10.7946V10.7942V10.7938V10.7934V10.793V10.7926V10.7921V10.7917V10.7913V10.7909V10.7905V10.7901V10.7897V10.7893V10.7889V10.7885V10.7881V10.7877V10.7873V10.7868V10.7864V10.786V10.7856V10.7852V10.7848V10.7844V10.784V10.7836V10.7832V10.7828V10.7824V10.782V10.7816V10.7812V10.7807V10.7803V10.7799V10.7795V10.7791V10.7787V10.7783V10.7779V10.7775V10.7771V10.7767V10.7763V10.7759V10.7755V10.7751V10.7747V10.7742V10.7738V10.7734V10.773V10.7726V10.7722V10.7718V10.7714V10.771V10.7706V10.7702V10.7698V10.7694V10.769V10.7686V10.7682V10.7678V10.7674V10.767V10.7665V10.7661V10.7657V10.7653V10.7649V10.7645V10.7641V10.7637V10.7633V10.7629V10.7625V10.7621V10.7617V10.7613V10.7609V10.7605V10.7601V10.7597V10.7593V10.7589V10.7585V10.7581V10.7576V10.7572V10.7568V10.7564V10.756V10.7556V10.7552V10.7548V10.7544V10.754V10.7536V10.7532V10.7528V10.7524V10.752V10.7516V10.7512V10.7508V10.7504V10.75V10.7496V10.7492V10.7488V10.7484V10.748V10.7476V10.7472V10.7468V10.7464V10.7459V10.7455V10.7451V10.7447V10.7443V10.7439V10.7435V10.7431V10.7427V10.7423V10.7419V10.7415V10.7411V10.7407V10.7403V10.7399V10.7395V10.7391V10.7387V10.7383V10.7379V10.7375V10.7371V10.7367V10.7363V10.7359V10.7355V10.7351V10.7347V10.7343V10.7339V10.7335V10.7331V10.7327V10.7323V10.7319V10.7315V10.7311V10.7307V10.7303V10.7299V10.7295V10.7291V10.7287V10.7283V10.7279V10.7275V10.7271V10.7267V10.7263V10.7259V10.7255V10.7251V10.7247V10.7243V10.7239V10.7235V10.7231V10.7227V10.7223V10.7219V10.7215V10.7211V10.7207V10.7203V10.7199V10.7195V10.7191V10.7187V10.7183V10.7179V10.7175V10.7171V10.7167V10.7163V10.7159V10.7155V10.7151V10.7147V10.7143V10.7139V10.7135V10.7131V10.7127V10.7123V10.7119V10.7115V10.7111V10.7107V10.7103V10.7099V10.7095V10.7091V10.7087V10.7083V10.7079V10.7075V10.7071V10.7067V10.7063V10.7059V10.7055V10.7051V10.7047V10.7043V10.7039V10.7035V10.7031V10.7027V10.7023V10.7019V10.7015V10.7011V10.7007V10.7003V10.6999V10.6995V10.6991V10.6987V10.6983V10.6979V10.6975V10.6971V10.6967V10.6963V10.6959V10.6955V10.6952V10.6948V10.6944V10.694V10.6936V10.6932V10.6928V10.6924V10.692V10.6916V10.6912V10.6908V10.6904V10.69V10.6896V10.6892V10.6888V10.6884V10.688V10.6876V10.6872V10.6868V10.6864V10.686V10.6856V10.6852V10.6848V10.6844V10.684V10.6837V10.6833V10.6829V10.6825V10.6821V10.6817V10.6813V10.6809V10.6805V10.6801V10.6797V10.6793V10.6789V10.6785V10.6781V10.6777V10.6773V10.6769V10.6765V10.6761V10.6757V10.6754V10.675V10.6746V10.6742V10.6738V10.6734V10.673V10.6726V10.6722V10.6718V10.6714V10.671V10.6706V10.6702V10.6698V10.6694V10.669V10.6686V10.6683V10.6679V10.6675V10.6671V10.6667V10.6663V10.6659V10.6655V10.6651V10.6647V10.6643V10.6639V10.6635V10.6631C13.5078 10.138 13.5095 9.49838 13.717 8.8971L21.5234 10.0498ZM21.5234 10.0498V9.55126V6.37157V5.87157H21.0234C20.9869 5.87157 20.9501 5.87155 20.9131 5.87153C20.8331 5.87148 20.7523 5.87144 20.672 5.87161L20.672 5.87161C20.5487 5.87188 20.4073 5.87174 20.2648 5.8716C20.1138 5.87145 19.9615 5.8713 19.8284 5.87164C19.6785 5.87202 19.5219 5.87177 19.3639 5.87151C19.1742 5.8712 18.9826 5.87089 18.7989 5.87167L18.7989 5.87167C18.6791 5.87219 18.551 5.87174 18.4205 5.87128C18.2429 5.87066 18.0609 5.87002 17.8895 5.87179C17.4253 5.87659 16.9286 5.89848 16.4153 6.0638L16.4152 6.06381C15.9207 6.22311 15.4686 6.4974 15.091 6.81674M21.5234 10.0498L14.2707 7.71694C14.337 7.61584 14.4086 7.51731 14.486 7.42196L14.49 7.41712L14.49 7.41714C14.6753 7.19459 14.8775 6.99736 15.091 6.81674M15.091 6.81674L15.4116 7.19573L15.091 6.81675C15.091 6.81674 15.091 6.81674 15.091 6.81674Z" stroke="#2B2B2B"/>
</g>
<defs>
<clipPath id="clip0_1099_1955">
<rect width="32" height="32" fill="white"/>
</clipPath>
</defs>
</svg>
