<svg width="81" height="66" viewBox="0 0 81 66" fill="none" xmlns="http://www.w3.org/2000/svg">
<path d="M79.4999 10.3464L71.5549 42.0232H22.4969L12.1652 1H1.5" stroke="#2B2B2B" stroke-width="2" stroke-linecap="round" stroke-linejoin="round"/>
<path d="M27.4479 64.0884C30.4255 64.0884 32.8392 61.454 32.8392 58.2044C32.8392 54.9547 30.4255 52.3203 27.4479 52.3203C24.4704 52.3203 22.0566 54.9547 22.0566 58.2044C22.0566 61.454 24.4704 64.0884 27.4479 64.0884Z" stroke="#2B2B2B" stroke-width="2" stroke-linecap="round" stroke-linejoin="round"/>
<path d="M67.7038 64.0884C70.6813 64.0884 73.0951 61.454 73.0951 58.2044C73.0951 54.9547 70.6813 52.3203 67.7038 52.3203C64.7263 52.3203 62.3125 54.9547 62.3125 58.2044C62.3125 61.454 64.7263 64.0884 67.7038 64.0884Z" stroke="#2B2B2B" stroke-width="2" stroke-linecap="round" stroke-linejoin="round"/>
<path d="M18.9492 28.0786H74.8426" stroke="#2B2B2B" stroke-width="2" stroke-linecap="round" stroke-linejoin="round"/>
<path d="M15.1982 10.3462H79.4998" stroke="#2B2B2B" stroke-width="2" stroke-linecap="round" stroke-linejoin="round"/>
<path d="M22.4966 42.0527V48.4922C22.4966 49.5073 22.8661 50.4809 23.5238 51.1987C24.1815 51.9165 25.0735 52.3198 26.0037 52.3198H67.8962" stroke="#2B2B2B" stroke-width="2" stroke-linecap="round" stroke-linejoin="round"/>
</svg>
