<svg width="65" height="64" viewBox="0 0 65 64" fill="none" xmlns="http://www.w3.org/2000/svg">
<g clip-path="url(#clip0_505_337)">
<path d="M32.43 11.71C32.86 11.05 33.25 10.4 33.68 9.78998C35.4252 7.22036 37.7873 5.12983 40.55 3.70998C42.0996 2.92252 43.7748 2.41153 45.5 2.19998C48.2591 1.83097 51.0666 2.22166 53.62 3.32998C55.6318 4.17957 57.443 5.44182 58.9364 7.03516C60.4298 8.6285 61.5723 10.5175 62.29 12.58C63.1164 14.9081 63.4964 17.3711 63.41 19.84C63.41 20.93 63.34 22.02 63.26 23.11C63 26.8869 61.9036 30.5589 60.05 33.86C58.9344 35.7738 57.6277 37.5696 56.15 39.22C54.4447 41.1503 52.6424 42.9927 50.75 44.74C48.01 47.31 45.25 49.85 42.5 52.42C39.2 55.49 35.97 58.64 32.78 61.83L32.67 61.94C32.626 61.9118 32.5857 61.8782 32.55 61.84C28.55 57.84 24.35 53.96 20.14 50.14C17.32 47.57 14.5 45 11.73 42.32C10.0239 40.6572 8.43357 38.8798 6.97004 37C4.80012 34.2122 3.24903 30.9941 2.42004 27.56C2.03879 26.0073 1.79122 24.4249 1.68004 22.83C1.60004 21.49 1.50004 20.13 1.50004 18.77C1.47681 15.8549 2.2157 12.9843 3.64349 10.4427C5.07127 7.9011 7.1384 5.77669 9.64004 4.27998C11.3679 3.28425 13.2736 2.63544 15.25 2.36998C19.1097 1.80744 23.0392 2.72553 26.25 4.93998C28.6984 6.61614 30.7471 8.8116 32.25 11.37L32.43 11.71Z" stroke="#2B2B2B" stroke-width="2" stroke-linecap="round" stroke-linejoin="round"/>
<path d="M42.5498 7.29006C43.695 6.70571 44.9337 6.32664 46.2098 6.17006C48.249 5.8951 50.3245 6.18567 52.2098 7.01006C53.6945 7.63832 55.031 8.57069 56.1334 9.74707C57.2357 10.9234 58.0793 12.3177 58.6098 13.8401C59.2195 15.559 59.5011 17.3772 59.4398 19.2001C59.4398 20.0101 59.4398 20.8101 59.3298 21.6201C59.1336 24.4089 58.3243 27.12 56.9598 29.5601" stroke="#2B2B2B" stroke-width="2" stroke-linecap="round" stroke-linejoin="round"/>
</g>
<defs>
<clipPath id="clip0_505_337">
<rect width="64" height="64" fill="white" transform="translate(0.5)"/>
</clipPath>
</defs>
</svg>
