<svg width="32" height="32" viewBox="0 0 32 32" fill="none" xmlns="http://www.w3.org/2000/svg">
<g clip-path="url(#clip0_1099_1948)">
<path d="M30.7427 9.77272C29.9369 7.86734 28.7835 6.15622 27.3144 4.68697C25.8453 3.21769 24.1343 2.06403 22.229 1.25803C20.2561 0.423375 18.1606 0.000125 16 0C13.8405 0 11.7452 0.423125 9.77222 1.25759C7.86694 2.06344 6.15594 3.21694 4.68675 4.68603C3.21756 6.15513 2.06397 7.86606 1.258 9.77128C0.423375 11.7442 0.000125028 13.8395 2.76937e-08 15.9991C-0.000124972 18.1587 0.422906 20.2542 1.25731 22.2273C2.06309 24.1327 3.21656 25.8438 4.68566 27.313C6.15475 28.7823 7.86572 29.936 9.77103 30.742C11.744 31.5766 13.8395 31.9999 15.9999 32H16.0002C18.1597 32 20.2549 31.5769 22.2279 30.7424C24.1332 29.9366 25.8442 28.7831 27.3133 27.314C28.7825 25.845 29.9361 24.134 30.7421 22.2288C31.5767 20.2558 31.9999 18.1605 32 16.001C32.0001 13.8413 31.5771 11.7458 30.7427 9.77272ZM16.0001 30.5103H15.9992C12.1234 30.51 8.47959 29.0005 5.73909 26.2597C2.99866 23.5189 1.48953 19.875 1.48975 15.9992C1.49022 7.99866 7.9995 1.48978 16.0009 1.48978C19.8767 1.49 23.5204 2.99953 26.2609 5.74031C29.0013 8.48112 30.5104 12.125 30.5102 16.0008C30.5098 24.0013 24.0006 30.5103 16.0001 30.5103Z" fill="#2B2B2B"/>
<path d="M20.5863 12.4284C21.1582 12.4284 21.6218 11.9648 21.6218 11.3929C21.6218 10.821 21.1582 10.3574 20.5863 10.3574C20.0144 10.3574 19.5508 10.821 19.5508 11.3929C19.5508 11.9648 20.0144 12.4284 20.5863 12.4284Z" fill="#2B2B2B"/>
<path d="M16.0002 20.4974C13.5204 20.4974 11.5029 18.4799 11.5029 16.0002C11.5029 13.5204 13.5204 11.5029 16.0002 11.5029C18.48 11.5029 20.4975 13.5204 20.4975 16.0002C20.4975 18.48 18.48 20.4974 16.0002 20.4974ZM16.0002 12.9092C14.2958 12.9092 12.9092 14.2958 12.9092 16.0002C12.9092 17.7046 14.2958 19.0912 16.0002 19.0912C17.7046 19.0912 19.0912 17.7046 19.0912 16.0002C19.0912 14.2958 17.7046 12.9092 16.0002 12.9092Z" fill="#2B2B2B"/>
<path d="M18.8639 25.0003H13.1362C9.90533 25.0003 7.27686 22.3718 7.27686 19.141V12.8594C7.27686 9.6285 9.90536 7 13.1362 7H18.8638C22.0947 7 24.7232 9.6285 24.7232 12.8594V19.141C24.7233 22.3718 22.0947 25.0003 18.8639 25.0003ZM13.1362 8.40625C10.6808 8.40625 8.68311 10.4039 8.68311 12.8594V19.141C8.68311 21.5964 10.6808 23.5941 13.1362 23.5941H18.8638C21.3193 23.5941 23.317 21.5964 23.317 19.141V12.8594C23.317 10.4039 21.3193 8.40625 18.8638 8.40625H13.1362Z" fill="#2B2B2B"/>
</g>
<defs>
<clipPath id="clip0_1099_1948">
<rect width="32" height="32" fill="white"/>
</clipPath>
</defs>
</svg>
