<svg width="73" height="65" viewBox="0 0 73 65" fill="none" xmlns="http://www.w3.org/2000/svg">
<path d="M28.1402 24.4717H1.5V63.9999H28.1402V24.4717Z" stroke="#2B2B2B" stroke-width="2" stroke-linecap="round" stroke-linejoin="round"/>
<path d="M20.3648 36.0571C21.9947 36.0571 23.316 34.6581 23.316 32.9324C23.316 31.2066 21.9947 29.8076 20.3648 29.8076C18.7349 29.8076 17.4136 31.2066 17.4136 32.9324C17.4136 34.6581 18.7349 36.0571 20.3648 36.0571Z" stroke="#2B2B2B" stroke-width="2" stroke-linecap="round" stroke-linejoin="round"/>
<path d="M20.3648 47.3423C21.9947 47.3423 23.316 45.9433 23.316 44.2175C23.316 42.4918 21.9947 41.0928 20.3648 41.0928C18.7349 41.0928 17.4136 42.4918 17.4136 44.2175C17.4136 45.9433 18.7349 47.3423 20.3648 47.3423Z" stroke="#2B2B2B" stroke-width="2" stroke-linecap="round" stroke-linejoin="round"/>
<path d="M69.6952 30.9376C70.3219 30.4253 70.7867 29.7233 71.0279 28.9249C71.2691 28.1264 71.2754 27.2691 71.0459 26.4668C69.9108 22.7772 66.9483 19.5443 63.4182 19.5443H45.5749L47.7088 15.41C48.6162 13.6562 49.0924 11.6889 49.0936 9.68924V5.60301C49.0906 4.38111 48.63 3.21035 47.813 2.34746C46.9959 1.48457 45.8889 0.999996 44.7349 1V1C43.5828 1.00317 42.4788 1.48915 41.6642 2.3517C40.8496 3.21424 40.3906 4.38319 40.3876 5.60301V5.60301C40.3889 8.5681 39.3445 11.4269 37.4591 13.6192L28.1401 24.4357V64H63.6906C64.7121 64.0016 65.7238 63.7897 66.6679 63.3765C67.6119 62.9634 68.4696 62.357 69.1919 61.5923C69.9142 60.8275 70.4869 59.9193 70.8771 58.9198C71.2673 57.9202 71.4674 56.849 71.4659 55.7674V55.7674C71.4652 54.5501 71.0079 53.3829 70.1946 52.5225C71.0386 51.5347 71.5041 50.249 71.4999 48.917V44.5544C71.4978 43.8776 71.3457 43.2108 71.0559 42.6076C70.7661 42.0043 70.3467 41.4815 69.8314 41.0811V41.0811C70.3263 40.8523 70.7477 40.476 71.044 39.9979C71.3403 39.5198 71.4987 38.9608 71.4999 38.389V34.1946C71.4981 33.5312 71.3301 32.8802 71.013 32.308C70.696 31.7358 70.2412 31.2629 69.6952 30.9376Z" stroke="#2B2B2B" stroke-width="2" stroke-linecap="round" stroke-linejoin="round"/>
</svg>
