<svg width="21" height="28" viewBox="0 0 21 28" fill="none" xmlns="http://www.w3.org/2000/svg">
<path d="M1 5V4.5H0.5V5H1ZM20 5H20.5V4.5H20V5ZM5.5 9C5.5 9.27614 5.72386 9.5 6 9.5C6.27614 9.5 6.5 9.27614 6.5 9H5.5ZM14.5 9C14.5 9.27614 14.7239 9.5 15 9.5C15.2761 9.5 15.5 9.27614 15.5 9H14.5ZM20 4.5H1V5.5H20V4.5ZM6.5 9V5.5H5.5V9H6.5ZM14.5 5.5V9H15.5V5.5H14.5ZM4 27.5H10.5V26.5H4V27.5ZM10.5 27.5H17V26.5H10.5V27.5ZM20.5 24V16.6726H19.5V24H20.5ZM20.5 16.6726V5H19.5V16.6726H20.5ZM0.5 5V16.6779H1.5V5H0.5ZM0.5 16.6779V24H1.5V16.6779H0.5ZM6.5 5.5C6.5 3.29086 8.29086 1.5 10.5 1.5V0.5C7.73858 0.5 5.5 2.73858 5.5 5.5H6.5ZM17 27.5C18.933 27.5 20.5 25.933 20.5 24H19.5C19.5 25.3807 18.3807 26.5 17 26.5V27.5ZM15.5 5.5C15.5 2.73858 13.2614 0.5 10.5 0.5V1.5C12.7091 1.5 14.5 3.29086 14.5 5.5H15.5ZM4 26.5C2.61929 26.5 1.5 25.3807 1.5 24H0.5C0.5 25.933 2.067 27.5 4 27.5V26.5Z" fill="#2B2B2B"/>
</svg>
