<svg width="32" height="32" viewBox="0 0 32 32" fill="none" xmlns="http://www.w3.org/2000/svg">
<g clip-path="url(#clip0_1099_1960)">
<path d="M30.7427 9.77272C29.9369 7.86734 28.7835 6.15622 27.3144 4.68697C25.8453 3.21769 24.1343 2.06403 22.229 1.25803C20.2561 0.423375 18.1606 0.000125 16 0C13.8405 0 11.7452 0.423125 9.77222 1.25759C7.86694 2.06344 6.15594 3.21694 4.68675 4.68603C3.21756 6.15513 2.06397 7.86606 1.258 9.77128C0.423375 11.7442 0.000125028 13.8395 2.76937e-08 15.9991C-0.000124972 18.1587 0.422906 20.2542 1.25731 22.2273C2.06309 24.1327 3.21656 25.8438 4.68566 27.313C6.15475 28.7823 7.86572 29.936 9.77103 30.742C11.744 31.5766 13.8395 31.9999 15.9999 32H16.0002C18.1597 32 20.2549 31.5769 22.2279 30.7424C24.1332 29.9366 25.8442 28.7831 27.3133 27.314C28.7825 25.845 29.9361 24.134 30.7421 22.2288C31.5767 20.2558 31.9999 18.1605 32 16.001C32.0001 13.8413 31.5771 11.7458 30.7427 9.77272ZM16.0001 30.5103H15.9992C12.1234 30.51 8.47959 29.0005 5.73909 26.2597C2.99866 23.5189 1.48953 19.875 1.48975 15.9992C1.49022 7.99866 7.9995 1.48978 16.0009 1.48978C19.8767 1.49 23.5204 2.99953 26.2609 5.74031C29.0013 8.48112 30.5104 12.125 30.5102 16.0008C30.5098 24.0013 24.0006 30.5103 16.0001 30.5103Z" fill="#2B2B2B"/>
<path d="M4.82845 12.479C5.06907 13.107 5.36567 13.7127 5.67179 14.3109C6.3992 15.7321 7.14829 17.1132 8.15264 18.3624C9.1676 19.6247 10.3659 20.8481 11.7775 21.6647C12.1701 21.8919 12.5828 22.0835 13.0127 22.2291C14.6714 22.791 16.4907 22.7375 17.0525 22.3629C17.6144 21.9884 16.9455 19.527 17.4538 19.2327C17.9622 18.9384 18.8718 19.5805 19.5406 20.1691C20.2094 20.7577 20.7178 21.266 21.0924 21.6673C21.3269 21.9186 21.492 22.2186 21.7978 22.3978C22.3036 22.6942 22.9776 22.6614 23.5418 22.663C23.8564 22.6639 24.171 22.6649 24.4855 22.661C24.6981 22.6584 24.9108 22.6652 25.1232 22.655C25.4723 22.638 25.9288 22.5002 25.9026 22.0635C25.8964 21.9602 25.8735 21.8367 25.8325 21.7414C25.7443 21.5366 25.6201 21.324 25.4866 21.1456C24.791 20.2159 24.3295 19.741 23.9818 19.3664C23.6339 18.9919 22.2026 17.6408 22.109 17.3733C22.0154 17.1057 21.9852 16.987 22.2511 16.6259C22.517 16.2646 23.0989 15.3534 23.5537 14.6979C23.839 14.2868 24.0981 13.857 24.3541 13.4273C24.6559 12.9208 24.9398 12.4019 25.1818 11.8639C25.2899 11.6234 25.3881 11.4042 25.3211 11.1346C25.2762 10.954 25.1747 10.7954 24.9855 10.7508C24.8823 10.7265 24.7696 10.724 24.664 10.724C24.2694 10.724 23.2393 10.724 23.2393 10.724C23.0531 10.724 22.8669 10.7213 22.6807 10.7217C22.4898 10.722 22.2973 10.7205 22.1069 10.7368C21.8361 10.76 21.6702 10.9689 21.5339 11.1794C21.3673 11.4371 21.2156 11.7051 21.0539 11.966C20.9434 12.1443 20.8353 12.324 20.729 12.5049C20.563 12.7874 20.392 13.0669 20.221 13.3464C20.1501 13.4623 20.0789 13.5781 20.0089 13.6947C19.8082 14.029 18.0692 16.3165 17.7214 16.4102C17.3737 16.5039 17.2533 16.4771 17.2533 15.7681C17.2533 15.0591 17.2533 11.0327 17.2533 11.0327C17.2533 11.0327 17.2266 10.7222 16.9323 10.7222C16.6379 10.7222 15.2729 10.7222 15.2729 10.7222H12.4576C12.4576 10.7222 11.7955 10.725 12.0296 11.3203C12.2637 11.9155 12.9559 12.0961 12.9559 13.0894C12.9559 14.0825 12.9559 16.982 12.9559 16.982C12.9559 16.982 12.8389 17.8549 12.0831 17.1325C11.4875 16.5633 10.9968 15.8903 10.5632 15.1925C10.1124 14.467 9.7492 13.7133 9.4257 12.9236C9.33317 12.6978 9.24154 12.4716 9.14651 12.2468C9.04732 12.0121 8.94904 11.7771 8.85392 11.5408C8.74345 11.2663 8.62526 10.9075 8.32739 10.7811C8.17764 10.7176 8.01201 10.7207 7.85239 10.7207C7.26042 10.7209 6.66848 10.7225 6.07654 10.7214C5.90285 10.7211 5.72917 10.7209 5.55548 10.7214C5.14539 10.7223 4.63532 10.7102 4.53804 11.2225C4.48198 11.5176 4.59342 11.8326 4.6867 12.109C4.72898 12.2347 4.78114 12.3554 4.82845 12.479Z" stroke="#2B2B2B"/>
</g>
<defs>
<clipPath id="clip0_1099_1960">
<rect width="32" height="32" fill="white"/>
</clipPath>
</defs>
</svg>
