<svg width="847" height="902" viewBox="0 0 847 902" fill="none" xmlns="http://www.w3.org/2000/svg">
<path d="M421 4C421 1.79086 419.209 0 417 0C414.791 0 413 1.79086 413 4H421ZM110.5 95L107.623 92.2209L110.5 95ZM228.5 291.5L227.393 295.344L228.5 291.5ZM709 311.5L707.657 315.268L707.673 315.273L707.689 315.279L709 311.5ZM25.0002 596.5L28.4954 598.445L25.0002 596.5ZM419.5 897.5C419.5 899.709 421.291 901.5 423.5 901.5C425.709 901.5 427.5 899.709 427.5 897.5H419.5ZM413 4C413 12.8682 409.798 19.5834 404.025 24.9292C398.108 30.4072 389.321 34.5928 378.008 37.783C355.337 44.1763 324.168 46.1551 290.165 47.943C256.386 49.7192 220.004 51.3054 187.64 57.0858C155.365 62.8504 126.278 72.9087 107.623 92.2209L113.377 97.7791C130.222 80.3413 157.198 70.6496 189.047 64.9611C220.809 59.2883 256.614 57.7183 290.585 55.932C324.332 54.1574 356.475 52.1674 380.18 45.4827C392.055 42.1338 402.22 37.503 409.46 30.7993C416.843 23.9635 421 15.1318 421 4H413ZM107.623 92.2209C76.0177 124.939 73.3579 166.788 95.1538 204.849C116.817 242.679 162.468 276.65 227.393 295.344L229.607 287.656C166.031 269.35 122.433 236.386 102.096 200.874C81.8922 165.592 84.4826 127.691 113.377 97.7791L107.623 92.2209ZM227.393 295.344C316.316 320.948 390.642 309.164 465.324 299.534C540.028 289.9 615.349 282.354 707.657 315.268L710.343 307.732C616.151 274.146 539.222 281.938 464.301 291.599C389.357 301.263 316.684 312.729 229.607 287.656L227.393 295.344ZM707.689 315.279C799.873 347.246 838.513 401.546 838.75 447.396C838.986 492.964 801.247 532.841 734.78 536.506L735.22 544.494C804.753 540.659 847.014 498.286 846.75 447.354C846.487 396.704 804.127 340.254 710.311 307.721L707.689 315.279ZM734.78 536.506C701.217 538.357 646.267 532.08 580.666 524.185C515.264 516.314 439.629 506.89 365.229 502.632C290.863 498.375 217.445 499.258 156.487 512.117C95.6049 524.961 46.3377 549.933 21.505 594.555L28.4954 598.445C51.6625 556.817 98.1452 532.601 158.138 519.945C218.055 507.305 290.637 506.375 364.772 510.618C438.871 514.86 514.236 524.248 579.71 532.128C644.983 539.983 700.783 546.393 735.22 544.494L734.78 536.506ZM21.505 594.555C-0.937907 634.882 -4.21426 667.27 5.47337 693.099C15.1177 718.811 37.2479 737.028 63.4749 749.889C115.851 775.571 186.809 781 217.5 781V773C187.191 773 117.714 767.575 66.9971 742.706C41.6776 730.29 21.5972 713.307 12.9638 690.289C4.37375 667.387 6.75269 637.514 28.4954 598.445L21.505 594.555ZM217.5 781C289.03 781 339.644 791.366 372.262 811.05C404.522 830.517 419.5 859.284 419.5 897.5H427.5C427.5 856.716 411.25 825.233 376.396 804.2C341.9 783.384 289.515 773 217.5 773V781Z" fill="#CDEAF2" fill-opacity="0.5"/>
</svg>
