<svg width="127" height="118" viewBox="0 0 127 118" fill="none" xmlns="http://www.w3.org/2000/svg">
<g clip-path="url(#clip0_1080_1940)">
<path d="M59.719 26.7701V26.9204C59.7211 29.8591 59.216 32.776 58.2261 35.543L58.2843 35.3636C57.322 38.0598 55.687 40.4656 53.5344 42.3528L53.515 42.3673C51.4745 44.2043 48.7602 45.3239 45.7842 45.3239H45.5516H45.5613C41.635 45.3014 37.8749 43.7364 35.0921 40.9666C32.0519 38.176 29.6867 34.7301 28.1756 30.89L28.1126 30.7058C26.648 27.0766 25.8769 23.2049 25.8394 19.2914V19.2721V19.1218C25.8394 16.0974 26.3677 13.1941 27.3323 10.4992L27.2741 10.6786C28.2364 7.98238 29.8714 5.57664 32.024 3.68941L32.0434 3.67487C34.2338 1.70417 37.0952 0.646312 40.0407 0.71829H40.0262C43.9536 0.735077 47.7158 2.30091 50.4954 5.07561C53.5052 7.86603 55.8505 11.2962 57.3585 15.1135L57.4216 15.2976C58.8223 18.6904 59.6511 22.6309 59.6947 26.7556V26.7701H59.719ZM33.8125 63.3542L33.8174 63.7614C33.8232 67.4061 32.6969 70.9627 30.5942 73.9398L30.633 73.8816C29.6742 75.2629 28.3953 76.3916 26.9057 77.1715C25.416 77.9514 23.7597 78.3592 22.0783 78.3601L21.5984 78.3504H21.6227C17.6499 78.3067 13.8314 76.8062 10.8917 74.1336L10.9063 74.1482C7.77895 71.4695 5.24948 68.1635 3.48184 64.4446C1.7142 60.7256 0.747863 56.6767 0.645472 52.5603V52.5215L0.640625 52.1241C0.640625 48.3193 1.83295 44.7908 3.86378 41.8972L3.82501 41.9553C4.82261 40.497 6.17606 39.3175 7.75711 38.5287C9.33816 37.7399 11.0944 37.3678 12.8596 37.4478H12.8353C16.8081 37.4915 20.6265 38.992 23.5663 41.6645L23.5517 41.65C26.6839 44.3445 29.2156 47.6664 30.9831 51.401C32.7506 55.1355 33.7145 59.1995 33.8125 63.33V63.3639V63.3542ZM63.674 61.3088C70.7503 61.6951 77.5274 64.2903 83.0517 68.7294L82.9839 68.6761C89.746 73.4785 95.5725 79.4775 100.176 86.3768L100.331 86.624C104.48 92.1981 106.905 98.8658 107.305 105.803L107.31 105.9L107.32 106.322C107.32 108.28 106.84 110.131 105.992 111.755L106.021 111.692C105.207 113.181 103.936 114.369 102.396 115.08L102.347 115.099C100.937 115.773 99.2935 116.301 97.5778 116.597L97.4614 116.611C95.6723 116.894 93.8636 117.033 92.0523 117.028H91.6888H91.7082C86.7142 116.698 81.8147 115.507 77.2258 113.509L77.5069 113.621C73.1732 111.731 68.5529 110.583 63.8388 110.223L63.6885 110.214C58.3425 110.611 53.389 111.813 48.7844 113.699L49.1092 113.582C44.3078 115.511 39.2252 116.647 34.0597 116.946L33.924 116.951C24.6633 116.957 20.0329 113.275 20.0329 105.905C20.2428 100.74 21.7281 95.7082 24.3563 91.2576L24.2739 91.403C27.1095 86.0701 30.6721 81.1569 34.8594 76.8042L34.84 76.8236C38.9329 72.5488 43.6134 68.8785 48.7408 65.9231L49.0413 65.7631C53.4205 63.0307 58.4384 61.4917 63.5964 61.2992H63.6546L63.674 61.3088ZM81.777 45.3288H81.5541C78.6958 45.3318 75.9378 44.2749 73.8136 42.3625L73.8233 42.3722C71.6877 40.5129 70.0599 38.1412 69.0928 35.4799L69.054 35.3636C68.0924 32.6529 67.6054 29.7966 67.6145 26.9204V26.7605V26.7701C67.6581 22.6261 68.4869 18.6904 69.9652 15.0844L69.8877 15.2976C71.3894 11.416 73.7527 7.9258 76.7993 5.09015L76.8187 5.07561C79.599 2.30564 83.3584 0.742003 87.283 0.723137H87.5108C90.4868 0.723137 93.201 1.84761 95.2513 3.68941L95.2416 3.67972C97.3645 5.53607 99.0027 7.89164 99.9721 10.5719L100.011 10.6883C100.937 13.2183 101.47 16.141 101.47 19.1848V19.2818V19.2769C101.428 23.2728 100.63 27.2246 99.1191 30.9239L99.1966 30.7106C97.6936 34.6135 95.312 38.1178 92.2365 40.952L92.2171 40.9714C89.4328 43.7343 85.6752 45.2938 81.7528 45.3142H81.7479L81.777 45.3288ZM114.493 37.4575L114.939 37.4478C118.482 37.4478 121.608 39.2217 123.479 41.9311L123.504 41.965C125.586 44.9481 126.698 48.5007 126.688 52.1386L126.683 52.5554V52.536C126.588 56.6499 125.628 60.6977 123.867 64.4168C122.106 68.1359 119.583 71.4431 116.461 74.1239L116.422 74.1579C113.487 76.8204 109.678 78.3154 105.716 78.3601H105.706C103.956 78.4388 102.214 78.0734 100.643 77.298C99.0716 76.5226 97.7221 75.3623 96.7199 73.9252L96.6956 73.8913C94.5304 70.8085 93.4156 67.1104 93.5161 63.3445V63.3639C93.6089 59.2356 94.5666 55.1726 96.3273 51.4374C98.0881 47.7022 100.613 44.3779 103.738 41.6791L103.777 41.6451C106.709 38.9909 110.51 37.4999 114.464 37.4526H114.474L114.493 37.4575Z" fill="#CDEAF2" fill-opacity="0.5"/>
</g>
<defs>
<clipPath id="clip0_1080_1940">
<rect width="126.018" height="116.325" fill="white" transform="translate(0.640625 0.712402)"/>
</clipPath>
</defs>
</svg>
