<svg width="322" height="296" viewBox="0 0 322 296" fill="none" xmlns="http://www.w3.org/2000/svg">
<path d="M322 151.402C322 231.261 249.918 296 161 296C72.0822 296 0 231.261 0 151.402C0 71.5432 128.906 0 217.824 0C306.741 0 322 71.5432 322 151.402Z" fill="white"/>
<path d="M319 151.402C319 229.309 248.572 293 161 293C73.4277 293 3 229.309 3 151.402C3 113.063 34.0819 75.9957 77.1901 48.2774C120.147 20.6563 174.048 3 217.824 3C239.649 3 256.737 7.38804 270.126 15.0318C283.502 22.6678 293.373 33.6587 300.612 47.1706C315.164 74.3351 319 111.53 319 151.402Z" stroke="#CDEAF2" stroke-opacity="0.5" stroke-width="6"/>
</svg>
