<svg width="322" height="296" viewBox="0 0 322 296" fill="none" xmlns="http://www.w3.org/2000/svg">
<path d="M0 151.402C0 231.261 72.0822 296 161 296C249.918 296 322 231.261 322 151.402C322 71.5432 193.094 0 104.176 0C15.2586 0 0 71.5432 0 151.402Z" fill="white"/>
<path d="M3 151.402C3 229.31 73.4277 293 161 293C248.572 293 319 229.31 319 151.402C319 113.063 287.918 75.9957 244.81 48.2774C201.853 20.6563 147.952 3 104.176 3C82.3512 3 65.2634 7.38804 51.874 15.0318C38.4982 22.6678 28.627 33.6587 21.3885 47.1707C6.83612 74.3351 3 111.53 3 151.402Z" stroke="#CDEAF2" stroke-opacity="0.5" stroke-width="6"/>
</svg>
